<?xml version="1.0" encoding="utf-8"?>
<!-- Generator: Adobe Illustrator 27.0.0, SVG Export Plug-In . SVG Version: 6.00 Build 0)  -->
<svg version="1.1" id="Layer_1" xmlns="http://www.w3.org/2000/svg" xmlns:xlink="http://www.w3.org/1999/xlink" x="0px" y="0px"
	 viewBox="0 0 792 792" style="enable-background:new 0 0 792 792;" xml:space="preserve">
<style type="text/css">
	.st0{fill:#F79520;}
	.st1{fill:#272D4A;}
	.st2{fill:#929CAB;}
</style>
<g>
	<path class="st0" d="M586.13,384.16c-4.62-19.81-24.61-31.67-41.97-39.13c5.83,3.04,11.93,14.61,14.86,19.68
		c4.18,7.22,7.4,15.76,7.26,24.21c-0.15,8.96-4.93,16.84-11.86,22.32c-3.7,2.93-11.03,8.56-15.98,8.61
		c-3.15,0.04-1.54,0.73-2.84-2.38c-3.83-9-3.81-20.18-5.44-29.76c-2.29-6.85-2.58-15.12-3.79-22.25
		c-1.21-7.15-2.33-14.06-2.33-21.35c-0.48-12.83-1.58-26.19-6.21-38.3c-2.09-5.46-4.97-10.87-9.42-14.79
		c-1.34-1.17-16.38-7.35-16.07-5.68c0,0,4.49,24.83,1.58,38.83c0,0-7.92-30.92-11.09-38.83c-3.17-7.92-30.11-94.42-106.18-85.31
		c0,0-25.75,6.34-27.34,34.47c-1.58,28.13-1.58,52.69-1.58,52.69s-27.86-1.58-37.64-1.32c-9.77,0.26-23.37,11.07-22.98,48.6
		c0,0-0.79,54.54-5.94,86.24c0,0,40.41-3.57,59.43-3.57c0,0,2.77-85.97,95.08-87.95c0,0,49.92-3.17,68.54,39.62
		c0,0,15.05,44.37-52.3,62.2c0,0-29.1,5.55-55.44,8.12c0.22,0,0.66,0.29,1.25,0.79c2.33,1.98,7,7.13,9.02,9.16
		c0.35,0.35,0.64,0.62,0.79,0.75c10.19,7.95,22.14,13.54,34.69,16.66c26.13,6.49,53.97,2.55,78.86-7
		c22.74-8.74,48.49-22.63,60.55-44.83C586.77,405.29,588.58,394.61,586.13,384.16z M375.08,293.12
		c-10.37,29.16-27.8,40.61-28.88,41.29c27.69-33.96,18.44-79.32,21.09-98.74c2.64-19.41,20.87-23.77,20.87-23.77
		c57.05-5.15,86.37,74.88,86.37,74.88C433.71,305.01,375.08,293.12,375.08,293.12z"/>
	<path class="st0" d="M386.57,411.98c-0.31,0,0.46-8.77,0.52-9.25c0.93-7.28,2.97-14.46,6.25-21.03
		c9.46-18.91,35.81-36.49,57.02-24.73c4.9,2.72,8.52,7.1,10.68,12.23c9.15,21.68-8.76,33.73-27.56,38.41
		C418.24,411.4,402.22,412.06,386.57,411.98z"/>
	<path class="st1" d="M464.22,563.32c-49.52,1.19-114.1,8.72-152.53,13.07c-38.43,4.36-48.33-27.34-46.75-36.84
		c1.58-9.51,5.94-48.73,5.94-48.73c-81.86,22.21-39.46,52.87-38.08,53.86c-49.19-15.58-29.41-49.37-29.41-49.37
		c22.25-36.91,132.72-52.54,142.12-53.79c0.42-0.07,0.64-0.09,0.64-0.09c3.41,7.86,7.4,14.81,11.86,20.91
		c58.02,79.26,196.66,18.71,196.66,18.71C593.24,562.92,513.74,562.13,464.22,563.32z"/>
	<path class="st2" d="M406.77,449.06l-48.75,13.27c-4.47-6.1-8.45-13.05-11.86-20.91c0,0-0.22,0.02-0.64,0.09l-0.02-0.09l52.25-1.52
		C400.08,441.89,404.75,447.04,406.77,449.06z"/>
	<g>
		<path class="st1" d="M134.68,478.64c-0.22-0.69-0.3-1.37-0.22-2.06c0.08-0.69,0.27-1.33,0.58-1.93c0.31-0.6,0.73-1.13,1.28-1.59
			c0.54-0.46,1.16-0.8,1.85-1.03c0.69-0.22,1.38-0.31,2.08-0.25c0.7,0.06,1.35,0.24,1.95,0.55c0.6,0.31,1.14,0.72,1.6,1.23
			c0.46,0.51,0.81,1.11,1.03,1.8l5.28,16.31l9.28-3l-3.72-11.48c-0.22-0.69-0.3-1.38-0.22-2.08c0.07-0.7,0.26-1.35,0.57-1.95
			c0.31-0.6,0.73-1.14,1.27-1.61c0.54-0.47,1.16-0.82,1.84-1.04c0.69-0.22,1.39-0.3,2.09-0.23c0.7,0.07,1.36,0.26,1.96,0.57
			c0.6,0.31,1.14,0.72,1.61,1.25c0.47,0.53,0.81,1.13,1.04,1.82l3.72,11.48l9.02-2.92l-5.24-16.32c-0.22-0.69-0.3-1.37-0.24-2.06
			c0.06-0.69,0.25-1.33,0.57-1.93c0.32-0.6,0.74-1.14,1.27-1.59c0.53-0.46,1.14-0.8,1.83-1.02c0.71-0.23,1.41-0.31,2.09-0.25
			c0.69,0.06,1.32,0.25,1.91,0.56c0.59,0.31,1.11,0.73,1.56,1.24c0.45,0.52,0.79,1.12,1.01,1.81l6.98,21.57
			c0.19,0.67,0.25,1.34,0.17,2.02c-0.08,0.68-0.27,1.31-0.57,1.89c-0.3,0.58-0.7,1.1-1.21,1.53c-0.51,0.44-1.11,0.77-1.8,0.99
			l-38.61,12.49c-1.11,0.36-2.2,0.36-3.29,0.01c-1.09-0.35-1.97-0.97-2.64-1.87c-0.06-0.2-0.18-0.42-0.36-0.66s-0.29-0.46-0.36-0.66
			L134.68,478.64z"/>
		<path class="st1" d="M139.88,413.15c-1.42,1.66-2.41,3.47-2.97,5.42c-0.56,1.95-0.75,3.94-0.59,5.97
			c0.16,2.06,0.71,3.98,1.64,5.77c0.93,1.79,2.13,3.32,3.61,4.61c1.47,1.28,3.18,2.26,5.12,2.93c1.94,0.67,3.99,0.93,6.15,0.76
			c2.08-0.17,4.02-0.71,5.81-1.62c1.79-0.92,3.34-2.11,4.64-3.59c1.31-1.48,2.3-3.18,2.97-5.11c0.68-1.93,0.93-4,0.75-6.21
			c-0.16-2.06-0.65-3.95-1.48-5.69c-0.82-1.73-2.11-3.34-3.86-4.84c-0.5-0.43-0.89-0.95-1.17-1.57c-0.28-0.62-0.45-1.27-0.5-1.94
			c-0.06-0.75,0.02-1.44,0.24-2.08c0.22-0.64,0.55-1.2,0.97-1.69c0.43-0.49,0.93-0.88,1.52-1.17c0.58-0.29,1.21-0.46,1.88-0.52
			c0.67-0.05,1.33,0.02,1.98,0.21c0.65,0.2,1.22,0.51,1.72,0.93c2.75,2.37,4.87,5.09,6.37,8.15c1.5,3.06,2.38,6.27,2.64,9.61
			c0.18,2.31,0.05,4.57-0.4,6.77c-0.45,2.2-1.15,4.28-2.1,6.26c-0.95,1.98-2.15,3.79-3.59,5.46c-1.43,1.66-3.06,3.12-4.87,4.39
			c-1.81,1.27-3.79,2.29-5.93,3.06c-2.14,0.77-4.38,1.25-6.72,1.44c-3.39,0.27-6.69-0.11-9.89-1.13c-3.2-1.02-6.08-2.57-8.63-4.65
			c-2.56-2.08-4.67-4.62-6.33-7.64c-1.66-3.01-2.64-6.38-2.93-10.11c-0.27-3.34,0.1-6.62,1.1-9.83c1-3.21,2.68-6.2,5.05-8.98
			c0.95-1.06,2.09-1.64,3.43-1.75c0.69-0.06,1.36,0.03,2,0.27c0.64,0.23,1.21,0.57,1.71,1.01c0.5,0.44,0.91,0.96,1.23,1.57
			c0.32,0.61,0.51,1.26,0.56,1.95c0.05,0.64-0.02,1.27-0.2,1.88C140.65,412.05,140.33,412.62,139.88,413.15z"/>
		<path class="st1" d="M180.75,365.63c-0.67,3.5-1.97,6.65-3.89,9.47c-1.92,2.82-4.25,5.15-6.98,6.99
			c-2.73,1.84-5.75,3.11-9.07,3.83c-3.31,0.71-6.72,0.74-10.22,0.06c-3.49-0.67-6.66-1.96-9.48-3.86c-2.83-1.9-5.17-4.21-7.03-6.95
			c-1.86-2.74-3.16-5.76-3.89-9.08c-0.73-3.32-0.75-6.73-0.08-10.22c0.45-2.33,1.18-4.51,2.21-6.55c1.02-2.04,2.26-3.89,3.71-5.57
			c1.45-1.68,3.1-3.14,4.94-4.39c1.84-1.25,3.81-2.24,5.91-2.98c2.1-0.74,4.28-1.2,6.56-1.4c2.27-0.19,4.57-0.07,6.9,0.38
			c3.5,0.67,6.65,1.98,9.45,3.91c2.81,1.93,5.13,4.27,6.98,7c1.85,2.73,3.14,5.77,3.88,9.1
			C181.39,358.72,181.43,362.13,180.75,365.63z M170.62,363.64c0.4-2.1,0.39-4.15-0.04-6.14c-0.43-1.99-1.19-3.79-2.28-5.42
			c-1.09-1.63-2.48-3.02-4.18-4.17c-1.69-1.15-3.61-1.93-5.73-2.34c-2.1-0.4-4.14-0.38-6.12,0.06c-1.98,0.45-3.78,1.22-5.41,2.33
			c-1.63,1.1-3.02,2.5-4.17,4.18c-1.15,1.68-1.93,3.57-2.33,5.68c-0.41,2.1-0.39,4.15,0.06,6.16c0.44,2,1.22,3.81,2.32,5.43
			c1.11,1.62,2.5,3,4.17,4.13c1.67,1.14,3.56,1.91,5.66,2.31c2.13,0.41,4.19,0.4,6.19-0.03c2-0.43,3.81-1.19,5.42-2.28
			c1.62-1.09,3-2.49,4.14-4.19C169.44,367.64,170.21,365.74,170.62,363.64z"/>
		<path class="st1" d="M157.75,312.69c-1.94-1.02-3.58-2.34-4.91-3.97c-1.33-1.63-2.31-3.41-2.92-5.35
			c-0.62-1.94-0.85-3.96-0.69-6.06c0.15-2.1,0.74-4.14,1.77-6.1c0.97-1.85,2.2-3.4,3.7-4.66c1.5-1.25,3.16-2.2,4.98-2.85
			c-0.51-1.87-0.68-3.77-0.51-5.7c0.17-1.94,0.74-3.83,1.71-5.68c1.03-1.96,2.37-3.62,4.01-4.95c1.64-1.34,3.44-2.31,5.39-2.92
			c1.95-0.61,3.98-0.84,6.08-0.68c2.1,0.15,4.13,0.74,6.07,1.76l26.6,13.92c0.66,0.35,1.21,0.79,1.64,1.34
			c0.43,0.54,0.74,1.13,0.93,1.77c0.19,0.64,0.26,1.31,0.2,2c-0.06,0.7-0.26,1.37-0.59,2.01c-0.35,0.66-0.79,1.22-1.33,1.66
			c-0.54,0.45-1.12,0.77-1.76,0.98c-0.63,0.21-1.29,0.29-1.99,0.25c-0.69-0.04-1.37-0.23-2.03-0.58l-26.26-13.74
			c-0.64-0.34-1.31-0.52-2.02-0.56c-0.71-0.04-1.39,0.05-2.06,0.26c-0.66,0.21-1.27,0.54-1.82,1.01c-0.55,0.47-0.99,1.02-1.33,1.66
			c-0.35,0.66-0.55,1.34-0.6,2.02c-0.05,0.69,0.03,1.34,0.24,1.96c0.21,0.62,0.54,1.2,0.97,1.73c0.43,0.53,0.97,0.98,1.59,1.34
			l6.03,3.16c0.66,0.35,1.21,0.79,1.64,1.32c0.44,0.53,0.76,1.13,0.96,1.79c0.21,0.66,0.28,1.34,0.22,2.04
			c-0.06,0.7-0.26,1.37-0.59,2c-0.35,0.66-0.79,1.21-1.32,1.65c-0.53,0.44-1.13,0.76-1.79,0.96c-0.66,0.21-1.33,0.28-2.02,0.23
			c-0.69-0.05-1.36-0.25-2.02-0.6l-5.9-3.09c-0.66-0.35-1.35-0.55-2.06-0.62c-0.71-0.06-1.38,0-2.02,0.19
			c-0.64,0.19-1.24,0.51-1.79,0.96c-0.56,0.45-1.01,1.02-1.37,1.71c-0.35,0.66-0.55,1.34-0.61,2.04c-0.06,0.7,0.02,1.38,0.22,2.04
			c0.21,0.66,0.53,1.27,0.97,1.82c0.44,0.55,0.98,0.99,1.62,1.33l26.26,13.74c0.66,0.35,1.21,0.79,1.65,1.32
			c0.44,0.53,0.74,1.12,0.93,1.77c0.18,0.65,0.25,1.32,0.19,2.02c-0.06,0.7-0.26,1.37-0.59,2.01c-0.35,0.66-0.79,1.21-1.32,1.65
			c-0.53,0.43-1.12,0.76-1.76,0.98c-0.64,0.22-1.3,0.3-1.99,0.25c-0.69-0.05-1.36-0.25-2.02-0.6L157.75,312.69z"/>
		<path class="st1" d="M209.34,218.21c-0.48-0.51-0.83-1.08-1.06-1.71c-0.23-0.64-0.34-1.28-0.32-1.94c0.02-0.66,0.17-1.3,0.45-1.92
			c0.28-0.62,0.67-1.17,1.18-1.65c0.52-0.5,1.1-0.87,1.73-1.1c0.63-0.24,1.27-0.35,1.92-0.33c0.66,0.02,1.3,0.16,1.92,0.42
			c0.62,0.26,1.17,0.65,1.65,1.15l28.1,29.61c0.5,0.52,0.86,1.1,1.09,1.74c0.23,0.64,0.33,1.28,0.3,1.92
			c-0.03,0.65-0.17,1.28-0.44,1.89c-0.27,0.61-0.67,1.17-1.19,1.67c-0.51,0.48-1.08,0.84-1.71,1.09c-0.64,0.25-1.28,0.37-1.93,0.36
			c-0.65-0.01-1.28-0.14-1.9-0.41c-0.62-0.26-1.18-0.66-1.68-1.18L209.34,218.21z"/>
		<path class="st1" d="M277.56,189.96c0.61-0.39,1.25-0.64,1.93-0.75c0.68-0.11,1.34-0.1,1.99,0.02c0.64,0.12,1.24,0.37,1.8,0.73
			c0.56,0.36,1.03,0.85,1.42,1.46l6.23,9.75c0.43,0.67,0.67,1.35,0.73,2.04c0.05,0.69,0.01,1.38-0.12,2.07
			c-1.15,3.86-2.74,7.09-4.78,9.69c-2.04,2.6-4.47,4.81-7.3,6.61c-1.91,1.19-3.92,2.09-6.05,2.71c-2.13,0.62-4.28,0.97-6.45,1.04
			c-2.17,0.07-4.33-0.13-6.47-0.6c-2.14-0.47-4.19-1.2-6.15-2.2c-1.97-0.99-3.8-2.24-5.49-3.75c-1.7-1.5-3.18-3.26-4.46-5.26
			c-1.26-1.98-2.23-4.05-2.91-6.22c-0.68-2.17-1.08-4.35-1.19-6.56c-0.11-2.21,0.06-4.39,0.51-6.54c0.45-2.15,1.16-4.22,2.15-6.19
			c0.99-1.98,2.23-3.82,3.73-5.52c1.5-1.7,3.24-3.2,5.25-4.47c3.09-1.97,6.25-3.23,9.49-3.79c3.24-0.55,6.63-0.45,10.18,0.31
			c0.71,0.16,1.33,0.43,1.87,0.8c0.53,0.38,0.97,0.84,1.32,1.38c0.36,0.57,0.59,1.19,0.68,1.86c0.09,0.67,0.06,1.34-0.09,1.98
			c-0.15,0.65-0.42,1.27-0.82,1.85c-0.39,0.59-0.88,1.07-1.47,1.44c-0.54,0.35-1.13,0.58-1.75,0.71c-0.63,0.12-1.28,0.11-1.95-0.04
			c-2.16-0.46-4.23-0.48-6.22-0.07c-1.99,0.41-3.84,1.17-5.56,2.27c-1.74,1.11-3.18,2.5-4.31,4.15c-1.13,1.66-1.92,3.44-2.35,5.35
			c-0.43,1.91-0.49,3.88-0.16,5.9c0.33,2.02,1.07,3.95,2.24,5.77c1.12,1.76,2.52,3.21,4.19,4.36c1.67,1.15,3.46,1.94,5.39,2.38
			c1.92,0.44,3.9,0.5,5.93,0.18c2.04-0.32,3.99-1.08,5.86-2.28c1.48-0.95,2.78-2.03,3.89-3.26c1.11-1.23,2-2.74,2.66-4.53
			l-2.19-3.44l-3.52,2.25c-0.61,0.39-1.25,0.64-1.92,0.74c-0.67,0.1-1.32,0.08-1.95-0.07c-0.63-0.15-1.22-0.42-1.78-0.81
			c-0.56-0.39-1.02-0.88-1.4-1.47c-0.38-0.59-0.62-1.21-0.74-1.87c-0.12-0.66-0.11-1.32,0-1.97c0.12-0.66,0.36-1.26,0.74-1.83
			c0.38-0.56,0.87-1.04,1.48-1.42L277.56,189.96z"/>
		<path class="st1" d="M298.88,175.6c-0.92-2.77-1.37-5.46-1.35-8.07c0.02-2.61,0.5-5.02,1.44-7.22c0.94-2.2,2.35-4.15,4.22-5.84
			c1.87-1.69,4.22-3,7.03-3.94c2.82-0.93,5.49-1.3,8.03-1.11c2.54,0.19,4.87,0.89,7.01,2.08c2.13,1.2,4.02,2.88,5.67,5.05
			c1.64,2.17,2.97,4.78,3.97,7.82l7.97,24.09c0.24,0.71,0.32,1.41,0.25,2.1c-0.07,0.69-0.26,1.33-0.57,1.92
			c-0.31,0.59-0.73,1.12-1.27,1.58c-0.54,0.46-1.15,0.81-1.84,1.04c-0.69,0.23-1.38,0.31-2.07,0.26c-0.7-0.05-1.35-0.23-1.94-0.52
			c-0.6-0.29-1.13-0.69-1.6-1.2c-0.47-0.51-0.82-1.12-1.05-1.83l-7.98-24.09c-1.03-3.11-2.5-5.3-4.4-6.57
			c-1.9-1.27-4.11-1.49-6.63-0.66c-2.52,0.83-4.21,2.25-5.06,4.24c-0.85,1.99-0.7,4.73,0.45,8.21l7.96,24.06
			c0.24,0.71,0.32,1.41,0.27,2.09c-0.06,0.69-0.25,1.33-0.57,1.92c-0.32,0.59-0.74,1.12-1.27,1.58c-0.53,0.46-1.13,0.8-1.82,1.03
			c-0.71,0.23-1.41,0.32-2.09,0.26c-0.68-0.06-1.33-0.23-1.94-0.52c-0.61-0.29-1.14-0.69-1.6-1.2c-0.46-0.51-0.8-1.13-1.04-1.84
			L298.88,175.6z"/>
		<path class="st1" d="M353.36,145.26c-0.1-0.69-0.06-1.36,0.13-2.01c0.18-0.65,0.47-1.24,0.86-1.76c0.39-0.52,0.89-0.96,1.48-1.3
			c0.59-0.34,1.23-0.56,1.92-0.66c0.71-0.1,1.4-0.07,2.05,0.1c0.65,0.17,1.24,0.45,1.76,0.85c0.53,0.39,0.97,0.88,1.32,1.45
			c0.36,0.58,0.58,1.21,0.68,1.9l5.71,40.42c0.1,0.72,0.06,1.4-0.12,2.05c-0.18,0.65-0.47,1.23-0.87,1.74
			c-0.4,0.51-0.88,0.94-1.46,1.28c-0.58,0.34-1.22,0.56-1.94,0.67c-0.69,0.1-1.37,0.06-2.03-0.1c-0.66-0.17-1.25-0.44-1.78-0.82
			c-0.52-0.38-0.96-0.86-1.32-1.44c-0.35-0.57-0.58-1.22-0.68-1.94L353.36,145.26z"/>
		<path class="st1" d="M397.25,146.89l-9.82-0.25c-0.72-0.02-1.39-0.17-2-0.46c-0.61-0.29-1.14-0.67-1.6-1.14
			c-0.45-0.48-0.8-1.03-1.04-1.65c-0.24-0.63-0.35-1.3-0.34-2.02c0.02-0.7,0.16-1.35,0.44-1.96c0.27-0.61,0.65-1.14,1.12-1.6
			c0.48-0.45,1.03-0.81,1.65-1.06c0.63-0.25,1.3-0.37,2.02-0.35l29.55,0.75c0.7,0.02,1.36,0.17,1.98,0.46s1.16,0.68,1.62,1.16
			c0.45,0.49,0.81,1.05,1.06,1.69c0.25,0.64,0.37,1.31,0.36,2c-0.02,0.72-0.17,1.39-0.46,2c-0.29,0.61-0.67,1.14-1.14,1.58
			c-0.47,0.44-1.03,0.78-1.67,1.02c-0.64,0.24-1.3,0.35-2,0.34l-9.63-0.24l-0.92,36.24c-0.02,0.72-0.17,1.39-0.46,2
			c-0.29,0.61-0.67,1.14-1.16,1.58c-0.49,0.44-1.05,0.78-1.69,1.02c-0.64,0.24-1.3,0.35-2,0.34c-0.7-0.02-1.34-0.16-1.94-0.44
			c-0.6-0.27-1.11-0.64-1.54-1.1c-0.43-0.46-0.75-1.01-0.98-1.63c-0.23-0.62-0.33-1.3-0.32-2.02L397.25,146.89z"/>
		<path class="st1" d="M470.76,147.03c0.7,0.17,1.33,0.47,1.87,0.89c0.55,0.43,1,0.93,1.35,1.5c0.35,0.58,0.58,1.22,0.69,1.92
			c0.11,0.7,0.08,1.41-0.09,2.11c-0.17,0.7-0.46,1.34-0.88,1.9c-0.42,0.56-0.91,1.03-1.49,1.38c-0.58,0.35-1.21,0.59-1.89,0.72
			c-0.68,0.13-1.37,0.11-2.08-0.06l-16.66-4.03l-2.29,9.48l11.73,2.84c0.7,0.17,1.33,0.47,1.89,0.9c0.56,0.43,1.01,0.93,1.37,1.51
			c0.35,0.58,0.59,1.22,0.71,1.93c0.12,0.71,0.1,1.41-0.08,2.12c-0.17,0.7-0.47,1.34-0.9,1.9c-0.43,0.56-0.93,1.02-1.51,1.37
			c-0.58,0.35-1.21,0.59-1.91,0.72c-0.69,0.12-1.39,0.1-2.09-0.07l-11.73-2.84l-2.23,9.21l16.65,4.07c0.7,0.17,1.33,0.46,1.88,0.87
			c0.55,0.41,1,0.91,1.35,1.5c0.35,0.59,0.58,1.23,0.69,1.92c0.11,0.69,0.08,1.39-0.09,2.09c-0.18,0.73-0.47,1.37-0.88,1.92
			c-0.41,0.55-0.91,1-1.48,1.33c-0.57,0.34-1.2,0.57-1.88,0.68c-0.68,0.11-1.37,0.09-2.07-0.08l-22.04-5.33
			c-0.67-0.19-1.27-0.49-1.81-0.92c-0.53-0.42-0.97-0.91-1.32-1.47c-0.34-0.56-0.57-1.17-0.67-1.84s-0.07-1.35,0.1-2.05l9.54-39.44
			c0.27-1.13,0.84-2.07,1.71-2.81c0.87-0.74,1.86-1.17,2.98-1.27c0.2,0.05,0.45,0.06,0.75,0.04c0.3-0.02,0.55-0.01,0.75,0.04
			L470.76,147.03z"/>
		<path class="st1" d="M546.89,211.84c0.6,0.4,1.09,0.89,1.46,1.46c0.38,0.58,0.64,1.18,0.78,1.82c0.15,0.64,0.16,1.29,0.05,1.94
			c-0.11,0.65-0.37,1.28-0.77,1.88l-6.42,9.62c-0.44,0.67-0.97,1.16-1.57,1.49c-0.61,0.32-1.25,0.57-1.95,0.72
			c-3.99,0.5-7.59,0.34-10.79-0.48c-3.21-0.82-6.2-2.16-8.99-4.02c-1.85-1.27-3.49-2.75-4.92-4.44c-1.43-1.7-2.61-3.52-3.55-5.48
			c-0.94-1.96-1.62-4.01-2.05-6.16c-0.43-2.15-0.58-4.32-0.46-6.52c0.12-2.2,0.52-4.38,1.22-6.54c0.7-2.16,1.7-4.22,3.02-6.2
			c1.3-1.95,2.81-3.68,4.52-5.17c1.71-1.5,3.55-2.74,5.53-3.73c1.98-0.99,4.04-1.71,6.19-2.17c2.15-0.46,4.33-0.63,6.53-0.53
			c2.21,0.11,4.39,0.5,6.56,1.19c2.16,0.68,4.23,1.68,6.21,3c3.05,2.03,5.48,4.42,7.29,7.16c1.81,2.74,3.08,5.89,3.81,9.45
			c0.14,0.72,0.15,1.39,0.02,2.03c-0.13,0.64-0.38,1.23-0.73,1.76c-0.37,0.56-0.85,1.02-1.43,1.37c-0.58,0.36-1.2,0.6-1.85,0.72
			c-0.66,0.12-1.33,0.12-2.03,0c-0.69-0.12-1.33-0.38-1.91-0.76c-0.54-0.36-0.99-0.8-1.35-1.32c-0.37-0.52-0.62-1.12-0.75-1.8
			c-0.45-2.16-1.27-4.07-2.44-5.72c-1.18-1.65-2.62-3.05-4.31-4.18c-1.72-1.15-3.56-1.91-5.54-2.28c-1.97-0.37-3.92-0.37-5.84,0
			c-1.93,0.37-3.75,1.12-5.47,2.23c-1.72,1.11-3.18,2.57-4.38,4.37c-1.16,1.74-1.93,3.6-2.31,5.59c-0.38,1.99-0.39,3.95-0.01,5.89
			c0.37,1.94,1.11,3.77,2.23,5.5c1.11,1.73,2.6,3.22,4.45,4.45c1.46,0.97,2.97,1.72,4.55,2.25c1.57,0.53,3.31,0.73,5.22,0.61
			l2.26-3.39l-3.48-2.32c-0.6-0.4-1.08-0.89-1.45-1.45c-0.37-0.57-0.61-1.17-0.73-1.81c-0.12-0.64-0.11-1.29,0.03-1.96
			c0.14-0.67,0.4-1.29,0.78-1.87c0.39-0.58,0.86-1.06,1.42-1.43c0.56-0.37,1.16-0.64,1.81-0.79c0.65-0.16,1.3-0.18,1.97-0.06
			c0.66,0.12,1.3,0.38,1.9,0.78L546.89,211.84z"/>
		<path class="st1" d="M568.31,225.63l0.26-0.24c0.19-0.18,0.35-0.29,0.48-0.34c0.04-0.11,0.13-0.22,0.26-0.34
			c2.07-1.9,4.22-3.3,6.46-4.18c2.24-0.88,4.5-1.32,6.79-1.31c2.29,0.01,4.52,0.48,6.7,1.4c2.18,0.92,4.14,2.33,5.88,4.23
			c1.69,1.84,2.93,3.91,3.73,6.2c0.8,2.29,1.14,4.61,1.04,6.94c-0.1,2.33-0.64,4.61-1.63,6.83c-0.99,2.22-2.5,4.27-4.53,6.13
			c-1.5,1.38-3.08,2.41-4.74,3.1c-1.66,0.69-3.35,1.07-5.06,1.16c-1.71,0.08-3.41-0.09-5.11-0.53c-1.7-0.44-3.33-1.09-4.9-1.96
			l-0.37,10.85c-0.03,0.69-0.2,1.34-0.51,1.94c-0.31,0.6-0.71,1.13-1.2,1.58c-0.53,0.49-1.12,0.85-1.77,1.08
			c-0.65,0.23-1.31,0.33-1.98,0.3c-0.68-0.03-1.34-0.18-1.98-0.47c-0.65-0.28-1.21-0.69-1.7-1.22c-0.47-0.51-0.83-1.11-1.09-1.78
			c-0.25-0.68-0.37-1.4-0.33-2.16l0.69-18.63l-7.22,6.38c-0.55,0.51-1.15,0.89-1.8,1.16c-0.65,0.26-1.31,0.4-1.97,0.4
			c-0.67,0-1.31-0.14-1.93-0.41c-0.62-0.27-1.18-0.68-1.69-1.24c-0.51-0.55-0.87-1.15-1.1-1.8c-0.23-0.65-0.33-1.32-0.3-2.01
			c0.03-0.69,0.19-1.36,0.5-2.01c0.3-0.64,0.73-1.22,1.28-1.73L568.31,225.63z M576.49,242.76c0.68,0.74,1.47,1.31,2.38,1.7
			c0.9,0.39,1.84,0.61,2.79,0.64c0.96,0.03,1.91-0.12,2.85-0.44c0.94-0.32,1.8-0.84,2.56-1.53c0.76-0.7,1.36-1.53,1.82-2.48
			c0.45-0.96,0.68-1.89,0.68-2.81c0-0.91-0.18-1.81-0.54-2.71c-0.37-0.89-0.89-1.71-1.57-2.45c-0.68-0.74-1.46-1.31-2.32-1.7
			c-0.87-0.39-1.76-0.6-2.68-0.63c-0.92-0.03-1.88,0.16-2.87,0.56c-0.99,0.41-1.85,0.94-2.57,1.6c-0.74,0.68-1.31,1.46-1.71,2.34
			c-0.4,0.88-0.63,1.78-0.68,2.7c-0.05,0.92,0.08,1.83,0.39,2.74C575.31,241.19,575.8,242.02,576.49,242.76z"/>
		<path class="st1" d="M587.91,303.04c-1.69-3.13-2.68-6.4-2.97-9.8c-0.29-3.4,0.04-6.68,0.99-9.83c0.96-3.15,2.49-6.05,4.61-8.7
			c2.12-2.65,4.75-4.82,7.88-6.5c3.13-1.69,6.39-2.69,9.79-3c3.39-0.32,6.67,0,9.84,0.94c3.17,0.94,6.09,2.47,8.75,4.58
			c2.66,2.11,4.83,4.74,6.52,7.87c1.13,2.09,1.93,4.25,2.43,6.47c0.49,2.22,0.71,4.45,0.64,6.66c-0.07,2.22-0.42,4.39-1.06,6.52
			c-0.64,2.13-1.54,4.15-2.7,6.05c-1.16,1.9-2.56,3.64-4.2,5.22c-1.64,1.58-3.5,2.94-5.59,4.06c-3.13,1.69-6.4,2.67-9.79,2.94
			c-3.4,0.28-6.68-0.06-9.84-1.01c-3.16-0.95-6.08-2.48-8.76-4.6C591.78,308.8,589.6,306.18,587.91,303.04z M597.03,298.18
			c1.01,1.88,2.32,3.46,3.91,4.73c1.59,1.27,3.32,2.19,5.2,2.76c1.88,0.57,3.83,0.77,5.88,0.59c2.04-0.18,4.02-0.78,5.93-1.8
			c1.89-1.01,3.45-2.32,4.7-3.91c1.25-1.6,2.16-3.34,2.72-5.22c0.57-1.89,0.76-3.85,0.59-5.88c-0.17-2.03-0.76-3.99-1.78-5.88
			c-1.01-1.88-2.33-3.46-3.93-4.74c-1.61-1.27-3.35-2.19-5.23-2.74c-1.88-0.55-3.83-0.75-5.84-0.57c-2.01,0.18-3.96,0.77-5.85,1.79
			c-1.91,1.03-3.5,2.34-4.78,3.94c-1.28,1.6-2.2,3.33-2.76,5.2c-0.56,1.87-0.75,3.82-0.56,5.86
			C595.41,294.33,596.01,296.3,597.03,298.18z"/>
		<path class="st1" d="M649.4,326.31c0.7-0.15,1.4-0.16,2.09-0.03c0.69,0.13,1.31,0.39,1.86,0.78c0.56,0.38,1.03,0.86,1.43,1.42
			c0.4,0.56,0.67,1.21,0.82,1.94c0.15,0.71,0.16,1.4,0.03,2.09c-0.13,0.69-0.38,1.32-0.73,1.89c-0.35,0.57-0.82,1.06-1.39,1.46
			c-0.57,0.4-1.22,0.67-1.92,0.82l-29.34,6.18c-0.73,0.15-1.39,0.44-1.98,0.85c-0.59,0.41-1.07,0.9-1.45,1.47
			c-0.38,0.57-0.64,1.2-0.79,1.91c-0.14,0.7-0.14,1.42,0.02,2.15c0.16,0.76,0.45,1.43,0.86,2.01c0.41,0.58,0.91,1.05,1.48,1.41
			c0.58,0.35,1.21,0.59,1.91,0.72c0.7,0.13,1.42,0.12,2.15-0.04l6.93-1.46c0.71-0.15,1.4-0.16,2.09-0.02
			c0.69,0.13,1.32,0.39,1.9,0.77c0.58,0.38,1.07,0.85,1.46,1.41c0.4,0.56,0.67,1.21,0.82,1.94c0.15,0.71,0.16,1.4,0.02,2.09
			s-0.39,1.32-0.77,1.9c-0.38,0.58-0.86,1.07-1.43,1.47c-0.57,0.4-1.22,0.67-1.92,0.82l-6.93,1.46c-0.73,0.15-1.39,0.43-1.98,0.81
			c-0.59,0.39-1.08,0.86-1.46,1.42c-0.38,0.55-0.65,1.18-0.79,1.87c-0.15,0.69-0.14,1.4,0.01,2.13c0.15,0.73,0.44,1.4,0.86,2
			c0.42,0.6,0.91,1.09,1.49,1.46c0.58,0.38,1.22,0.64,1.92,0.78c0.7,0.14,1.42,0.14,2.15-0.02l29.34-6.18
			c0.71-0.15,1.4-0.15,2.09-0.01c0.69,0.15,1.31,0.4,1.86,0.77c0.55,0.37,1.03,0.85,1.42,1.42c0.4,0.57,0.67,1.23,0.83,1.96
			c0.15,0.71,0.16,1.4,0.02,2.09c-0.13,0.69-0.38,1.31-0.73,1.87c-0.36,0.56-0.82,1.05-1.39,1.46c-0.57,0.41-1.21,0.69-1.92,0.84
			l-29.83,6.28c-2.15,0.45-4.25,0.47-6.32,0.05c-2.07-0.42-3.95-1.19-5.65-2.31c-1.7-1.12-3.16-2.54-4.38-4.28
			c-1.22-1.73-2.06-3.68-2.52-5.86c-0.43-2.04-0.47-4.02-0.12-5.93c0.35-1.91,1.02-3.69,2.02-5.35c-1.58-1.12-2.91-2.48-4.01-4.1
			c-1.09-1.62-1.85-3.44-2.28-5.49c-0.46-2.17-0.48-4.29-0.05-6.35c0.42-2.07,1.18-3.95,2.29-5.64c1.11-1.7,2.52-3.15,4.24-4.35
			c1.72-1.21,3.66-2.04,5.8-2.49L649.4,326.31z"/>
		<path class="st1" d="M655.44,414.12l0.45-9.82c0.03-0.72,0.2-1.38,0.5-1.99c0.3-0.61,0.69-1.13,1.18-1.57
			c0.49-0.44,1.04-0.78,1.67-1.01c0.63-0.23,1.31-0.33,2.03-0.29c0.7,0.03,1.35,0.19,1.95,0.48c0.61,0.29,1.13,0.67,1.57,1.16
			c0.44,0.49,0.78,1.04,1.03,1.67c0.24,0.63,0.35,1.31,0.31,2.03l-1.37,29.53c-0.03,0.69-0.2,1.35-0.5,1.97
			c-0.3,0.62-0.7,1.15-1.2,1.59c-0.5,0.44-1.07,0.78-1.71,1.02c-0.64,0.24-1.31,0.35-2.01,0.32c-0.72-0.03-1.38-0.2-1.99-0.5
			c-0.61-0.3-1.12-0.69-1.55-1.17c-0.43-0.49-0.76-1.05-0.99-1.69c-0.23-0.64-0.33-1.31-0.29-2.01l0.45-9.62l-36.21-1.68
			c-0.72-0.03-1.38-0.2-1.99-0.5c-0.6-0.3-1.12-0.7-1.55-1.19c-0.43-0.5-0.76-1.07-0.98-1.71c-0.23-0.64-0.33-1.31-0.29-2.01
			s0.19-1.34,0.48-1.93c0.28-0.59,0.66-1.1,1.14-1.51c0.47-0.42,1.02-0.74,1.65-0.95c0.63-0.22,1.3-0.31,2.03-0.27L655.44,414.12z"
			/>
		<path class="st1" d="M655.85,460.01c0.69,0.2,1.32,0.51,1.86,0.95c0.55,0.43,0.98,0.95,1.31,1.55c0.33,0.6,0.53,1.24,0.62,1.92
			c0.09,0.68,0.03,1.38-0.17,2.1c-0.2,0.7-0.51,1.32-0.95,1.86c-0.44,0.55-0.95,0.99-1.54,1.33c-0.59,0.34-1.24,0.56-1.93,0.64
			c-0.7,0.09-1.39,0.03-2.08-0.17l-16.24-4.57l-4.73,16.8l16.24,4.57c0.7,0.2,1.32,0.51,1.86,0.95c0.55,0.43,0.98,0.95,1.31,1.55
			c0.33,0.6,0.54,1.24,0.62,1.92c0.09,0.68,0.03,1.38-0.17,2.1c-0.2,0.69-0.51,1.32-0.95,1.86c-0.44,0.55-0.95,0.99-1.54,1.33
			c-0.59,0.34-1.24,0.56-1.93,0.64s-1.39,0.03-2.08-0.17l-39.1-11.01c-0.72-0.2-1.35-0.52-1.88-0.95c-0.54-0.43-0.96-0.95-1.27-1.54
			c-0.31-0.6-0.51-1.24-0.6-1.94c-0.09-0.69-0.03-1.39,0.16-2.08c0.2-0.72,0.52-1.35,0.95-1.88c0.43-0.54,0.94-0.98,1.52-1.32
			c0.58-0.35,1.21-0.56,1.89-0.65c0.68-0.09,1.38-0.03,2.1,0.17l12.66,3.57l4.73-16.8l-12.66-3.57c-0.72-0.2-1.35-0.52-1.88-0.95
			c-0.53-0.43-0.96-0.95-1.27-1.54c-0.31-0.6-0.51-1.24-0.6-1.94c-0.09-0.7-0.03-1.39,0.17-2.08c0.2-0.72,0.52-1.35,0.95-1.88
			c0.43-0.54,0.94-0.98,1.52-1.32c0.58-0.35,1.21-0.56,1.89-0.65c0.68-0.09,1.38-0.03,2.1,0.17L655.85,460.01z"/>
	</g>
	<g>
		<path class="st1" d="M179.76,546.58l14.77-11.81l7.23,9.04l-1.74,1.39l-5.91-7.39l-4.51,3.61l5.53,6.92l-1.74,1.39l-5.53-6.92
			l-5.03,4.02l6.14,7.68l-1.74,1.39L179.76,546.58z"/>
		<path class="st1" d="M198.41,568.36l9.37-17.56l1.58,1.66l-7.04,12.51c-0.55,0.97-1.1,1.88-1.66,2.75
			c0.92-0.54,1.87-1.05,2.83-1.52l12.92-6.36l1.49,1.56l-17.99,8.54L198.41,568.36z"/>
		<path class="st1" d="M212.33,582.11l12.47-14.21l8.7,7.64l-1.47,1.68l-7.11-6.24l-3.81,4.34l6.66,5.84l-1.47,1.68l-6.66-5.85
			l-4.25,4.84l7.39,6.49l-1.47,1.68L212.33,582.11z"/>
		<path class="st1" d="M230.76,597.58l11.16-15.26l5.73,4.19c1.2,0.88,1.98,1.66,2.34,2.37s0.48,1.52,0.36,2.45
			c-0.12,0.93-0.5,1.83-1.14,2.71c-0.84,1.15-1.83,1.86-2.98,2.12c-1.14,0.26-2.38,0.06-3.7-0.61c0.28,0.63,0.43,1.18,0.48,1.65
			c0.08,0.96,0.06,1.93-0.08,2.93l-0.78,5.81l-2.15-1.57l0.6-4.43c0.24-1.73,0.35-2.93,0.32-3.61c-0.02-0.68-0.14-1.21-0.35-1.59
			c-0.21-0.38-0.6-0.78-1.17-1.2l-1.98-1.45l-4.96,6.78L230.76,597.58z M238.71,590.31l3.68,2.69c0.8,0.59,1.48,0.94,2.03,1.06
			c0.55,0.12,1.1,0.06,1.64-0.16c0.54-0.22,1-0.6,1.39-1.14c0.56-0.77,0.77-1.55,0.63-2.33c-0.14-0.78-0.67-1.51-1.59-2.18
			l-4.09-2.99L238.71,590.31z"/>
		<path class="st1" d="M255.12,614.21l4.15-6.85l0.36-12.52l2.21,1.34l-0.26,6.51c-0.05,1.29-0.14,2.48-0.26,3.59
			c0.92-0.6,1.99-1.25,3.23-1.96l5.54-3.15l2.1,1.27l-11.11,6.01l-4.15,6.85L255.12,614.21z"/>
		<path class="st1" d="M275.8,625.67l7.41-14.94l-4.73-2.35l0.99-2l11.37,5.64l-0.99,2l-4.75-2.36l-7.41,14.94L275.8,625.67z"/>
		<path class="st1" d="M292.81,633.57l6.92-17.59l1.97,0.78l-2.84,7.22l7.75,3.05l2.84-7.22l1.97,0.78l-6.92,17.59l-1.97-0.78
			l3.26-8.29l-7.75-3.05l-3.26,8.29L292.81,633.57z"/>
		<path class="st1" d="M316.82,642.32l5.65-18.04l2.02,0.63l-5.65,18.04L316.82,642.32z"/>
		<path class="st1" d="M330.97,646.47l4.35-18.4l2.11,0.5l4.77,16.41l3.42-14.47l1.97,0.47l-4.35,18.4l-2.11-0.5l-4.76-16.41
			l-3.42,14.48L330.97,646.47z"/>
		<path class="st1" d="M364.38,645.51l0.31-2.21l6.72,0.94l-0.99,6.96c-1.17,0.82-2.33,1.4-3.5,1.74c-1.17,0.33-2.33,0.42-3.49,0.25
			c-1.55-0.22-2.88-0.79-3.98-1.71c-1.11-0.92-1.91-2.15-2.42-3.69c-0.5-1.54-0.61-3.32-0.33-5.34c0.29-2.04,0.9-3.77,1.83-5.19
			c0.93-1.42,2.02-2.4,3.27-2.96c1.25-0.56,2.67-0.72,4.24-0.5c1.16,0.16,2.15,0.52,2.96,1.06c0.81,0.54,1.44,1.23,1.9,2.08
			c0.45,0.85,0.73,1.96,0.82,3.33l-1.97,0.35c-0.11-1.09-0.31-1.93-0.63-2.51c-0.31-0.58-0.76-1.06-1.36-1.45
			c-0.59-0.39-1.28-0.64-2.07-0.75c-1.15-0.16-2.18-0.03-3.09,0.39c-0.91,0.42-1.7,1.17-2.36,2.24s-1.12,2.43-1.35,4.07
			c-0.36,2.5-0.08,4.46,0.82,5.86c0.9,1.4,2.22,2.22,3.96,2.47c0.83,0.12,1.7,0.05,2.62-0.21c0.92-0.26,1.67-0.62,2.26-1.07
			l0.49-3.49L364.38,645.51z"/>
		<path class="st1" d="M397.5,655.57l0.32-18.9l2.12,0.04l-0.32,18.9L397.5,655.57z"/>
		<path class="st1" d="M412.26,655.57l-0.98-18.88l2.17-0.11l9.18,14.41l-0.77-14.85l2.02-0.11l0.98,18.88l-2.17,0.11l-9.17-14.42
			l0.78,14.86L412.26,655.57z"/>
		<path class="st1" d="M450.1,642.63c-0.62-3.16-0.38-5.74,0.72-7.72c1.1-1.98,2.72-3.19,4.87-3.61c1.39-0.27,2.72-0.14,4.02,0.39
			c1.29,0.53,2.41,1.46,3.36,2.77c0.95,1.32,1.62,2.97,2.02,4.97c0.54,2.75,0.34,5.12-0.61,7.1c-1.04,2.19-2.72,3.51-5.02,3.96
			c-2.32,0.46-4.38-0.15-6.17-1.83C451.65,647.15,450.59,645.14,450.1,642.63z M452.25,642.24c0.45,2.29,1.32,3.96,2.61,5.02
			c1.29,1.06,2.68,1.44,4.17,1.14c1.53-0.3,2.68-1.19,3.46-2.67c0.78-1.48,0.93-3.45,0.44-5.93c-0.32-1.59-0.86-2.97-1.64-4.12
			c-0.6-0.88-1.37-1.53-2.31-1.95c-0.94-0.42-1.89-0.53-2.87-0.33c-1.57,0.31-2.74,1.2-3.5,2.66
			C451.84,637.53,451.72,639.59,452.25,642.24z"/>
		<path class="st1" d="M478.43,645.81l-5.34-18.13l2.08-0.61l12.28,11.89l-4.2-14.27l1.94-0.57l5.34,18.14l-2.08,0.61l-12.27-11.89
			l4.2,14.27L478.43,645.81z"/>
		<path class="st1" d="M502.66,638.06l-6.91-17.6l10.78-4.23l0.82,2.08l-8.8,3.46l2.11,5.38l8.25-3.24l0.82,2.08l-8.25,3.24
			l2.35,5.99l9.15-3.59l0.82,2.08L502.66,638.06z"/>
		<path class="st1" d="M538.25,622.03l-9.28-16.47l5.26-2.96c1.24-0.7,2.21-1.11,2.92-1.23c0.96-0.17,1.9,0,2.82,0.5
			c0.91,0.5,1.69,1.31,2.32,2.44c0.84,1.48,1.13,2.91,0.87,4.29s-1.34,2.61-3.26,3.69l-3.57,2.01l3.77,6.7L538.25,622.03z
			 M535.23,612.35l3.61-2.03c1.14-0.64,1.83-1.36,2.07-2.15c0.24-0.79,0.09-1.69-0.48-2.7c-0.37-0.65-0.81-1.14-1.33-1.45
			c-0.52-0.32-1.01-0.46-1.48-0.43c-0.46,0.03-1.18,0.32-2.14,0.86l-3.57,2.01L535.23,612.35z"/>
		<path class="st1" d="M558.85,609.78l-10.6-15.66l1.75-1.19l9.35,13.81l6.53-4.42l1.25,1.85L558.85,609.78z"/>
		<path class="st1" d="M575.17,598.35l-7.02-18.61l1.77-1.42l16.95,10.63l-1.89,1.52l-5.04-3.3l-5.25,4.22l2.23,5.55L575.17,598.35z
			 M573.9,589.42l4.25-3.42l-4.58-3.04c-1.41-0.93-2.52-1.71-3.34-2.35c0.6,1.08,1.12,2.2,1.58,3.36L573.9,589.42z"/>
		<path class="st1" d="M598.62,569.06l1.97-1.02c1.13,1.86,1.64,3.57,1.51,5.14c-0.12,1.57-0.79,2.94-2.01,4.11
			c-1.07,1.03-2.23,1.66-3.47,1.88c-1.24,0.22-2.65,0.01-4.2-0.64c-1.56-0.65-3.07-1.74-4.53-3.26c-1.44-1.5-2.42-3-2.94-4.51
			c-0.52-1.5-0.61-2.92-0.3-4.24c0.32-1.32,0.98-2.48,2-3.46c1.12-1.07,2.4-1.66,3.84-1.76c1.45-0.1,2.95,0.35,4.52,1.33l-1.1,1.86
			c-2.33-1.4-4.27-1.35-5.81,0.14c-0.77,0.74-1.25,1.57-1.45,2.5c-0.2,0.92-0.08,1.95,0.36,3.08c0.44,1.13,1.25,2.31,2.44,3.55
			c1.8,1.87,3.48,2.94,5.06,3.22c1.58,0.28,2.93-0.12,4.05-1.2c0.83-0.8,1.27-1.78,1.33-2.93
			C599.97,571.68,599.53,570.42,598.62,569.06z"/>
		<path class="st1" d="M612.91,563.67l-14.28-12.39l7.58-8.75l1.69,1.46l-6.2,7.15l4.36,3.78l5.8-6.69l1.69,1.46l-5.8,6.69
			l4.86,4.22l6.44-7.43l1.69,1.46L612.91,563.67z"/>
	</g>
</g>
</svg>
